#N canvas 604 235 1091 632 16;
#X obj 323 460 dac~;
#X obj 343 398 osc~ 0;
#X obj 340 233 metro 1000;
#X msg 278 314 1800;
#X msg 417 160 stop;
#X obj 164 314 send tick;
#X obj 232 142 receive start;
#X obj 417 134 receive stop;
#X msg 833 295 \; start bang;
#X msg 833 340 \; stop bang;
#X obj 397 301 delay 20;
#X msg 397 329 0;
#X obj 443 347 send silence;
#X connect 1 0 0 0;
#X connect 1 0 0 1;
#X connect 2 0 3 0;
#X connect 2 0 5 0;
#X connect 2 0 10 0;
#X connect 3 0 1 0;
#X connect 4 0 2 0;
#X connect 6 0 2 0;
#X connect 7 0 4 0;
#X connect 10 0 11 0;
#X connect 10 0 12 0;
#X connect 11 0 1 0;
